<?xml version="1.0" encoding="UTF-8"?>
<svg id="Layer_1" xmlns="http://www.w3.org/2000/svg" version="1.1" viewBox="0 0 1008 1152">
  <!-- Generator: Adobe Illustrator 29.4.0, SVG Export Plug-In . SVG Version: 2.1.0 Build 152)  -->
  <defs>
    <style>
      .st0 {
        fill: #fff;
      }

      .st1 {
        display: none;
      }

      .st2 {
        fill: #d5af34;
      }
    </style>
  </defs>
  <rect class="st1" x="0" width="1008" height="1152"/>
  <g>
    <g>
      <path class="st0" d="M376.4,594.41c-5.21-15.43-3.02-25.1,11.03-33.71,16.82-10.31,39.04-13.9,58.4-15.52,32.74-22.7,45.67-28.93,76.52-29.75,12.62-.34,27.44-.38,39.99.37,7.6.45,17.18,2.43,24.37,5.09,14.37,5.31,25.25,16.07,39.06,22.31,8.45,5.62,8.66,21.15,8.31,30.31-.25,6.54-.84,7.81-1.27,7.81-1,0-.66-16.84-5.82-26.36-5.78-10.65-19.54-9.99-30.11-10.05-.76-.66,2.96-1.98,3.27-2.16,1.74-.99,3.46-2.29,5.24-3.18.77-.38,1.91.11,1.65-.97-2.44-1.26-4.55-3.09-6.89-4.51-13.9-8.45-35.98-16.52-50.36-4.96l-15,16.13c34.13-.48,30.12-.32,34.15-.39,6.2-.12,14.35-1,20.4-.32.52.06,1.08.07,1.21.71-1.08.07-2.23-.12-3.3.03-21.49,3.02-43.01,5.36-64.52,8.43-28.37,4.06-57.09,7.25-83.86,18.2-1.27.52-2.81.48-3.68,1.57,7.72,8.92,18.8,3.91,28.85,4.04,3.03-2.87,6.48-6.73,10.42-8.25,2.02-.78,4.9-1.24,7.02-1.92.49.4-3.28,2.83-3.67,3.16-1.56,1.33-3.59,3.19-4.96,4.68-2.13,2.33-5.73,8.6-8.54,9.18-2.2.46-5.23.28-7.53.53-5,.56-12.97,2.03-17.83.94-6.29-1.42-9.46-9.29-16.31-11.04-5.96-1.52-22.78-1.24-29.36-.79-4.87.33-11.73,2.64-13,8.04-.87,3.68,2.58,13.9,4.14,17.66.47,1.14,2.33,5.57,3.09,6.03,14.22,5.2,54.27,4.4,54.34,4.4l-2.78-3.34c-2.41-1.5-4.93-4.82-7.66-5.68-.07-.02-28.28-5-28.84-5.89,3.83-.41,7.98.62,11.75.87,7.64.51,16.36,0,23.8,1.1,3.01.45,3.05.52,5.14,2.58l12.62,15.97-11.38,1.07c-20.38.45-40.6-.91-60.6-3.96M456.6,545.24h68.04l17.18-20.34c-14.68.33-37.78-1.1-50.24,1.49-12.18,2.53-34.85,18.75-34.99,18.85Z"/>
      <path class="st0" d="M584.62,561.37l-7.01,13.51-11.2.91-7.05,48.36-15.43,2.11,7.36-49.1s-44.32,3.3-52.7,7.8c-14.29,7.68-16.46,33.01-.79,34.28,6.22.5,12.37-.78,18.39-1.76l2.12-14.36-14.38,1.75s3.23-9.42,5.17-10.51c1.33-.75,18.3-2.54,25.35-2.81l-5.96,36.65s-32.48,8.65-45.21,2.06c-18.28-9.46-15-34.39-3.55-48.02,13.38-15.93,27.68-15.27,46.82-17.01,26.93-2.45,39.88-2.96,58.05-3.85Z"/>
      <path class="st0" d="M613.03,561.37s-6.33,43.99-9.1,51.75c-2.84,7.97-14.44,6.68-15.1,6.29,3.09-14.58,6.31-37.39,7.02-44.71h-13.32l14.9-13.33h15.61Z"/>
    </g>
    <g>
      <path class="st2" d="M568.31,424.59c0,4.55-3.97,7.96-8.23,7.54l-10.17,47.14c-17.44-2.9-31.41-4.36-45.18-4.35-13.78,0-27.74,1.46-45.18,4.35l-10.17-47.16c-4.65.49-8.42-3.14-8.42-7.52s3.39-7.56,7.56-7.56,7.57,3.39,7.57,7.56c0,1.73-.58,3.33-1.56,4.61,21.81,19.87,21.42,19.55,22.7,20.29,1.9,1.12,3.78.96,5.27-.68,2.01-2.21,15.57-31.76,19.29-39.33-2.71-1.15-4.62-3.84-4.62-6.97,0-4.18,3.39-7.57,7.57-7.57s7.57,3.39,7.57,7.57c0,3.13-1.91,5.82-4.62,6.97,3.72,7.57,17.28,37.12,19.29,39.33,1.49,1.64,3.37,1.8,5.27.68,1.28-.75.88-.42,22.58-20.18-1.03-1.29-1.65-2.93-1.65-4.72,0-4.18,3.39-7.56,7.57-7.56s7.57,3.39,7.57,7.56Z"/>
      <path class="st2" d="M448.18,470.53c-22.85,6.03-32.29,10.86-50,18.94l-.2,58.71-11.17,5.48.39-71.51s12.03-6.52,26.19-12.21c10.42-4.18,31.82-10.96,31.82-10.96l2.97,11.55Z"/>
      <path class="st2" d="M596.63,625.37c-27.64,51.97-89.53,85.75-92.63,86.52-3.1-.76-64.99-34.55-92.63-86.52,0,0-12.1-1.99-14.05-2.09,33.15,68.75,102.04,98,106.68,101.17,4.64-3.17,73.53-32.42,106.68-101.17-1.95.1-14.05,2.09-14.05,2.09Z"/>
      <path class="st2" d="M559.82,470.53c22.85,6.03,32.29,10.86,50,18.94l.2,40.07,11.17,5.48-.39-52.87s-12.03-6.52-26.19-12.21c-10.42-4.18-31.82-10.96-31.82-10.96l-2.97,11.55Z"/>
      <path class="st2" d="M464.47,496c-1.22-3.11-2.47-6.21-3.74-9.3,29.11-5.37,58.93-5.17,87.91.54-1.36,2.88-2.69,5.78-3.99,8.68-26.51-4.77-53.67-4.75-80.17.08Z"/>
    </g>
  </g>
</svg>